<svg width="1200" height="630" viewBox="0 0 1200 630" fill="none" xmlns="http://www.w3.org/2000/svg">
<g clip-path="url(#clip0_23_2)">
<path d="M1200 0H0V630H1200V0Z" fill="white"/>
<path d="M1200 611.686H0V629.686H1200V611.686Z" fill="#F0DB4F"/>

<text fill="#35495E" xml:space="preserve" style="white-space: pre" font-family="Fira Code" font-size="78" letter-spacing="0em"><tspan x="86.8047" y="285.066">{{name}}</tspan></text>
<text fill="#35495E" fill-opacity="0.7" xml:space="preserve" style="white-space: pre" font-family="Inter, Helvetica, sans-serif" font-size="30" letter-spacing="0em"><tspan x="92" y="360.409">{{line1}}&#10;</tspan><tspan x="92" y="415.409">{{line2}}&#10;</tspan><tspan x="92" y="470.409">{{line3}}</tspan></text>
<text fill="#35495E" fill-opacity="0.5" xml:space="preserve" style="white-space: pre" font-family="Fira Code" font-size="33.9548" letter-spacing="0em"><tspan x="93.5952" y="196.745">{{package}}</tspan></text>

<path d="M860.727 458.297V494.177C860.727 496.413 860.428 498.649 859.83 500.885C859.258 503.095 858.27 505.11 856.866 506.93C855.488 508.724 853.616 510.167 851.25 511.259C848.884 512.351 845.933 512.897 842.397 512.897C839.771 512.897 837.184 512.481 834.636 511.649C832.114 510.817 829.787 509.608 827.655 508.022L830.658 503.537C832.998 504.993 835.13 505.981 837.054 506.501C838.978 506.995 840.733 507.242 842.319 507.242C846.063 507.242 848.936 506.046 850.938 503.654C852.966 501.262 853.98 497.973 853.98 493.787V463.835H838.068V458.297H860.727ZM890.571 507.476C893.717 507.476 896.2 506.891 898.02 505.721C899.866 504.525 900.789 502.939 900.789 500.963C900.789 499.715 900.555 498.636 900.087 497.726C899.645 496.816 898.722 495.997 897.318 495.269C895.914 494.541 893.756 493.813 890.844 493.085C888.01 492.383 885.54 491.577 883.434 490.667C881.354 489.731 879.729 488.522 878.559 487.04C877.415 485.558 876.843 483.634 876.843 481.268C876.843 478.954 877.493 476.965 878.793 475.301C880.119 473.611 881.952 472.324 884.292 471.44C886.632 470.53 889.349 470.075 892.443 470.075C895.745 470.075 898.618 470.517 901.062 471.401C903.532 472.259 905.625 473.325 907.341 474.599L904.455 479.045C902.895 477.979 901.179 477.108 899.307 476.432C897.435 475.73 895.173 475.379 892.521 475.379C889.297 475.379 887.009 475.886 885.657 476.9C884.305 477.888 883.629 479.175 883.629 480.761C883.629 481.957 883.954 482.958 884.604 483.764C885.28 484.544 886.411 485.259 887.997 485.909C889.583 486.533 891.767 487.222 894.549 487.976C897.227 488.678 899.554 489.523 901.53 490.511C903.532 491.499 905.092 492.799 906.21 494.411C907.328 496.023 907.887 498.103 907.887 500.651C907.887 503.563 907.055 505.929 905.391 507.749C903.727 509.543 901.569 510.856 898.917 511.688C896.291 512.494 893.509 512.897 890.571 512.897C886.853 512.897 883.681 512.364 881.055 511.298C878.455 510.206 876.271 508.893 874.503 507.359L878.247 503.03C879.859 504.356 881.705 505.435 883.785 506.267C885.891 507.073 888.153 507.476 890.571 507.476ZM956.684 458.297V494.606C956.684 498.22 955.943 501.405 954.461 504.161C953.005 506.917 950.938 509.062 948.26 510.596C945.608 512.13 942.475 512.897 938.861 512.897C935.169 512.897 931.997 512.13 929.345 510.596C926.719 509.036 924.704 506.878 923.3 504.122C921.896 501.366 921.194 498.194 921.194 494.606V458.297H927.902V494.84C927.902 498.922 928.851 501.977 930.749 504.005C932.673 506.033 935.377 507.047 938.861 507.047C942.371 507.047 945.075 506.033 946.973 504.005C948.897 501.977 949.859 498.922 949.859 494.84V458.297H956.684ZM1002.75 509.933C1001.35 510.869 999.645 511.597 997.643 512.117C995.641 512.637 993.678 512.897 991.754 512.897C987.334 512.897 983.928 511.74 981.536 509.426C979.144 507.112 977.948 504.135 977.948 500.495V476.003H968.51V470.933H977.948V461.612L984.5 460.832V470.933H998.696L997.916 476.003H984.5V500.417C984.5 502.705 985.098 504.447 986.294 505.643C987.516 506.839 989.531 507.437 992.339 507.437C993.873 507.437 995.29 507.255 996.59 506.891C997.89 506.527 999.099 506.059 1000.22 505.487L1002.75 509.933ZM1037.7 470.933V506.813H1049.29V512H1018.48V506.813H1031.15V476.12H1018.87V470.933H1037.7ZM1032.48 451.706C1033.93 451.706 1035.09 452.148 1035.95 453.032C1036.83 453.916 1037.28 454.995 1037.28 456.269C1037.28 457.595 1036.83 458.713 1035.95 459.623C1035.09 460.507 1033.93 460.949 1032.48 460.949C1031.1 460.949 1029.97 460.507 1029.09 459.623C1028.2 458.713 1027.76 457.595 1027.76 456.269C1027.76 454.995 1028.2 453.916 1029.09 453.032C1029.97 452.148 1031.1 451.706 1032.48 451.706ZM1079.68 454.397V501.86C1079.68 503.888 1080.3 505.331 1081.55 506.189C1082.82 507.021 1084.46 507.437 1086.46 507.437C1087.71 507.437 1088.89 507.307 1090.01 507.047C1091.13 506.787 1092.25 506.436 1093.37 505.994L1095.12 510.791C1094 511.337 1092.61 511.818 1090.95 512.234C1089.31 512.676 1087.45 512.897 1085.37 512.897C1081.73 512.897 1078.78 511.896 1076.52 509.894C1074.26 507.866 1073.12 505.071 1073.12 501.509V459.584H1060.53V454.397H1079.68ZM1124.42 507.476C1127.56 507.476 1130.05 506.891 1131.87 505.721C1133.71 504.525 1134.64 502.939 1134.64 500.963C1134.64 499.715 1134.4 498.636 1133.93 497.726C1133.49 496.816 1132.57 495.997 1131.17 495.269C1129.76 494.541 1127.6 493.813 1124.69 493.085C1121.86 492.383 1119.39 491.577 1117.28 490.667C1115.2 489.731 1113.58 488.522 1112.41 487.04C1111.26 485.558 1110.69 483.634 1110.69 481.268C1110.69 478.954 1111.34 476.965 1112.64 475.301C1113.97 473.611 1115.8 472.324 1118.14 471.44C1120.48 470.53 1123.2 470.075 1126.29 470.075C1129.59 470.075 1132.47 470.517 1134.91 471.401C1137.38 472.259 1139.47 473.325 1141.19 474.599L1138.3 479.045C1136.74 477.979 1135.03 477.108 1133.15 476.432C1131.28 475.73 1129.02 475.379 1126.37 475.379C1123.14 475.379 1120.86 475.886 1119.5 476.9C1118.15 477.888 1117.48 479.175 1117.48 480.761C1117.48 481.957 1117.8 482.958 1118.45 483.764C1119.13 484.544 1120.26 485.259 1121.84 485.909C1123.43 486.533 1125.61 487.222 1128.4 487.976C1131.07 488.678 1133.4 489.523 1135.38 490.511C1137.38 491.499 1138.94 492.799 1140.06 494.411C1141.18 496.023 1141.73 498.103 1141.73 500.651C1141.73 503.563 1140.9 505.929 1139.24 507.749C1137.57 509.543 1135.42 510.856 1132.76 511.688C1130.14 512.494 1127.36 512.897 1124.42 512.897C1120.7 512.897 1117.53 512.364 1114.9 511.298C1112.3 510.206 1110.12 508.893 1108.35 507.359L1112.09 503.03C1113.71 504.356 1115.55 505.435 1117.63 506.267C1119.74 507.073 1122 507.476 1124.42 507.476Z" fill="#35495E"/>



<path d="M801.289 549.418H798.897C798.756 548.73 798.508 548.125 798.154 547.605C797.807 547.084 797.383 546.646 796.881 546.293C796.386 545.933 795.836 545.662 795.231 545.482C794.627 545.302 793.997 545.212 793.341 545.212C792.145 545.212 791.061 545.515 790.09 546.119C789.125 546.724 788.357 547.614 787.785 548.791C787.219 549.968 786.936 551.412 786.936 553.122C786.936 554.833 787.219 556.277 787.785 557.453C788.357 558.63 789.125 559.521 790.09 560.125C791.061 560.73 792.145 561.032 793.341 561.032C793.997 561.032 794.627 560.942 795.231 560.762C795.836 560.582 796.386 560.315 796.881 559.961C797.383 559.601 797.807 559.161 798.154 558.64C798.508 558.113 798.756 557.508 798.897 556.826H801.289C801.109 557.836 800.781 558.74 800.305 559.537C799.83 560.334 799.238 561.013 798.53 561.572C797.823 562.125 797.029 562.547 796.148 562.836C795.273 563.125 794.338 563.27 793.341 563.27C791.656 563.27 790.158 562.859 788.846 562.035C787.534 561.212 786.502 560.042 785.749 558.524C784.997 557.006 784.621 555.206 784.621 553.122C784.621 551.039 784.997 549.238 785.749 547.72C786.502 546.203 787.534 545.032 788.846 544.209C790.158 543.386 791.656 542.974 793.341 542.974C794.338 542.974 795.273 543.119 796.148 543.408C797.029 543.698 797.823 544.122 798.53 544.682C799.238 545.235 799.83 545.91 800.305 546.707C800.781 547.498 801.109 548.402 801.289 549.418ZM810.866 563.309C809.528 563.309 808.354 562.99 807.345 562.354C806.342 561.717 805.557 560.826 804.991 559.682C804.432 558.537 804.152 557.199 804.152 555.669C804.152 554.125 804.432 552.778 804.991 551.627C805.557 550.476 806.342 549.582 807.345 548.945C808.354 548.309 809.528 547.99 810.866 547.99C812.203 547.99 813.374 548.309 814.377 548.945C815.387 549.582 816.171 550.476 816.731 551.627C817.297 552.778 817.579 554.125 817.579 555.669C817.579 557.199 817.297 558.537 816.731 559.682C816.171 560.826 815.387 561.717 814.377 562.354C813.374 562.99 812.203 563.309 810.866 563.309ZM810.866 561.264C811.882 561.264 812.718 561.003 813.374 560.482C814.03 559.961 814.515 559.277 814.83 558.428C815.145 557.579 815.303 556.659 815.303 555.669C815.303 554.678 815.145 553.756 814.83 552.9C814.515 552.045 814.03 551.354 813.374 550.826C812.718 550.299 811.882 550.035 810.866 550.035C809.85 550.035 809.014 550.299 808.358 550.826C807.702 551.354 807.216 552.045 806.901 552.9C806.586 553.756 806.428 554.678 806.428 555.669C806.428 556.659 806.586 557.579 806.901 558.428C807.216 559.277 807.702 559.961 808.358 560.482C809.014 561.003 809.85 561.264 810.866 561.264ZM823.331 543.244V563H821.055V543.244H823.331ZM829.777 543.244V563H827.501V543.244H829.777ZM840.159 563.309C838.731 563.309 837.5 562.994 836.464 562.363C835.436 561.727 834.641 560.839 834.082 559.701C833.529 558.556 833.252 557.225 833.252 555.707C833.252 554.19 833.529 552.852 834.082 551.695C834.641 550.531 835.419 549.624 836.416 548.974C837.419 548.318 838.59 547.99 839.927 547.99C840.699 547.99 841.461 548.119 842.214 548.376C842.966 548.633 843.651 549.051 844.268 549.63C844.886 550.203 845.378 550.961 845.744 551.907C846.111 552.852 846.294 554.016 846.294 555.399V556.363H834.873V554.396H843.979C843.979 553.56 843.812 552.814 843.477 552.158C843.149 551.502 842.68 550.984 842.069 550.605C841.464 550.225 840.751 550.035 839.927 550.035C839.021 550.035 838.236 550.26 837.574 550.711C836.918 551.154 836.413 551.733 836.059 552.447C835.706 553.161 835.529 553.926 835.529 554.743V556.055C835.529 557.174 835.722 558.122 836.108 558.9C836.5 559.672 837.043 560.26 837.738 560.666C838.432 561.064 839.239 561.264 840.159 561.264C840.757 561.264 841.297 561.18 841.78 561.013C842.268 560.839 842.69 560.582 843.043 560.241C843.397 559.894 843.67 559.463 843.863 558.949L846.062 559.566C845.831 560.312 845.442 560.968 844.895 561.534C844.349 562.093 843.673 562.531 842.87 562.846C842.066 563.154 841.162 563.309 840.159 563.309ZM855.776 563.309C854.387 563.309 853.191 562.981 852.188 562.325C851.185 561.669 850.413 560.765 849.873 559.614C849.333 558.463 849.062 557.148 849.062 555.669C849.062 554.164 849.339 552.836 849.892 551.685C850.452 550.527 851.23 549.624 852.226 548.974C853.23 548.318 854.4 547.99 855.738 547.99C856.78 547.99 857.718 548.183 858.554 548.569C859.39 548.955 860.075 549.495 860.609 550.19C861.143 550.884 861.474 551.695 861.603 552.621H859.326C859.152 551.945 858.767 551.347 858.169 550.826C857.577 550.299 856.78 550.035 855.776 550.035C854.889 550.035 854.111 550.267 853.442 550.73C852.78 551.187 852.262 551.833 851.889 552.669C851.522 553.498 851.339 554.473 851.339 555.592C851.339 556.736 851.519 557.733 851.879 558.582C852.246 559.431 852.76 560.09 853.423 560.559C854.091 561.029 854.876 561.264 855.776 561.264C856.368 561.264 856.905 561.161 857.387 560.955C857.87 560.749 858.278 560.453 858.612 560.068C858.947 559.682 859.185 559.219 859.326 558.678H861.603C861.474 559.553 861.156 560.341 860.648 561.042C860.146 561.736 859.48 562.289 858.651 562.701C857.828 563.106 856.87 563.309 855.776 563.309ZM871.374 548.183V550.113H863.696V548.183H871.374ZM865.934 544.633H868.21V558.756C868.21 559.399 868.304 559.881 868.49 560.203C868.683 560.518 868.927 560.73 869.223 560.839C869.525 560.942 869.844 560.994 870.178 560.994C870.429 560.994 870.635 560.981 870.796 560.955C870.956 560.923 871.085 560.897 871.181 560.878L871.644 562.923C871.49 562.981 871.275 563.039 870.998 563.096C870.722 563.161 870.371 563.193 869.947 563.193C869.304 563.193 868.673 563.055 868.056 562.778C867.445 562.502 866.937 562.08 866.532 561.514C866.133 560.949 865.934 560.235 865.934 559.373V544.633ZM874.799 563V548.183H877.075V563H874.799ZM875.956 545.714C875.513 545.714 875.13 545.563 874.808 545.261C874.493 544.958 874.336 544.595 874.336 544.17C874.336 543.746 874.493 543.383 874.808 543.08C875.13 542.778 875.513 542.627 875.956 542.627C876.4 542.627 876.779 542.778 877.095 543.08C877.416 543.383 877.577 543.746 877.577 544.17C877.577 544.595 877.416 544.958 877.095 545.261C876.779 545.563 876.4 545.714 875.956 545.714ZM887.264 563.309C885.927 563.309 884.753 562.99 883.743 562.354C882.74 561.717 881.955 560.826 881.39 559.682C880.83 558.537 880.55 557.199 880.55 555.669C880.55 554.125 880.83 552.778 881.39 551.627C881.955 550.476 882.74 549.582 883.743 548.945C884.753 548.309 885.927 547.99 887.264 547.99C888.602 547.99 889.772 548.309 890.775 548.945C891.785 549.582 892.57 550.476 893.129 551.627C893.695 552.778 893.978 554.125 893.978 555.669C893.978 557.199 893.695 558.537 893.129 559.682C892.57 560.826 891.785 561.717 890.775 562.354C889.772 562.99 888.602 563.309 887.264 563.309ZM887.264 561.264C888.28 561.264 889.116 561.003 889.772 560.482C890.428 559.961 890.914 559.277 891.229 558.428C891.544 557.579 891.701 556.659 891.701 555.669C891.701 554.678 891.544 553.756 891.229 552.9C890.914 552.045 890.428 551.354 889.772 550.826C889.116 550.299 888.28 550.035 887.264 550.035C886.248 550.035 885.412 550.299 884.756 550.826C884.1 551.354 883.615 552.045 883.3 552.9C882.984 553.756 882.827 554.678 882.827 555.669C882.827 556.659 882.984 557.579 883.3 558.428C883.615 559.277 884.1 559.961 884.756 560.482C885.412 561.003 886.248 561.264 887.264 561.264ZM899.73 554.087V563H897.453V548.183H899.652V550.498H899.845C900.193 549.746 900.72 549.142 901.427 548.685C902.135 548.222 903.048 547.99 904.167 547.99C905.17 547.99 906.048 548.196 906.8 548.608C907.553 549.013 908.138 549.63 908.556 550.46C908.974 551.283 909.183 552.325 909.183 553.585V563H906.906V553.74C906.906 552.576 906.604 551.669 906 551.019C905.395 550.363 904.566 550.035 903.511 550.035C902.784 550.035 902.135 550.193 901.562 550.508C900.996 550.823 900.549 551.283 900.221 551.887C899.894 552.492 899.73 553.225 899.73 554.087ZM927.002 563.309C925.664 563.309 924.491 562.99 923.481 562.354C922.478 561.717 921.693 560.826 921.127 559.682C920.568 558.537 920.288 557.199 920.288 555.669C920.288 554.125 920.568 552.778 921.127 551.627C921.693 550.476 922.478 549.582 923.481 548.945C924.491 548.309 925.664 547.99 927.002 547.99C928.34 547.99 929.51 548.309 930.513 548.945C931.523 549.582 932.307 550.476 932.867 551.627C933.433 552.778 933.716 554.125 933.716 555.669C933.716 557.199 933.433 558.537 932.867 559.682C932.307 560.826 931.523 561.717 930.513 562.354C929.51 562.99 928.34 563.309 927.002 563.309ZM927.002 561.264C928.018 561.264 928.854 561.003 929.51 560.482C930.166 559.961 930.651 559.277 930.967 558.428C931.282 557.579 931.439 556.659 931.439 555.669C931.439 554.678 931.282 553.756 930.967 552.9C930.651 552.045 930.166 551.354 929.51 550.826C928.854 550.299 928.018 550.035 927.002 550.035C925.986 550.035 925.15 550.299 924.494 550.826C923.838 551.354 923.352 552.045 923.037 552.9C922.722 553.756 922.565 554.678 922.565 555.669C922.565 556.659 922.722 557.579 923.037 558.428C923.352 559.277 923.838 559.961 924.494 560.482C925.15 561.003 925.986 561.264 927.002 561.264ZM943.789 548.183V550.113H935.802V548.183H943.789ZM938.194 563V546.138C938.194 545.289 938.393 544.582 938.792 544.016C939.191 543.45 939.708 543.026 940.345 542.743C940.982 542.46 941.654 542.318 942.361 542.318C942.921 542.318 943.377 542.363 943.731 542.453C944.085 542.543 944.348 542.627 944.522 542.704L943.866 544.672C943.75 544.633 943.59 544.585 943.384 544.527C943.184 544.47 942.921 544.441 942.593 544.441C941.84 544.441 941.297 544.63 940.963 545.01C940.635 545.389 940.471 545.945 940.471 546.679V563H938.194ZM962.491 543.244H964.883V557.367C964.883 558.627 964.651 559.698 964.188 560.579C963.725 561.46 963.073 562.129 962.23 562.585C961.388 563.042 960.394 563.27 959.249 563.27C958.169 563.27 957.208 563.074 956.365 562.682C955.523 562.283 954.86 561.717 954.378 560.984C953.896 560.251 953.655 559.379 953.655 558.37H956.008C956.008 558.929 956.147 559.418 956.423 559.836C956.706 560.248 957.092 560.569 957.581 560.801C958.069 561.032 958.626 561.148 959.249 561.148C959.938 561.148 960.523 561.003 961.005 560.714C961.487 560.424 961.854 560 962.105 559.441C962.362 558.875 962.491 558.183 962.491 557.367V543.244ZM973.728 563.347C972.79 563.347 971.937 563.17 971.172 562.817C970.407 562.457 969.799 561.939 969.349 561.264C968.899 560.582 968.674 559.759 968.674 558.794C968.674 557.945 968.841 557.257 969.175 556.73C969.51 556.196 969.957 555.778 970.516 555.476C971.076 555.174 971.693 554.949 972.368 554.801C973.05 554.646 973.735 554.524 974.423 554.434C975.323 554.318 976.053 554.232 976.613 554.174C977.179 554.109 977.59 554.003 977.847 553.855C978.111 553.707 978.243 553.45 978.243 553.084V553.006C978.243 552.055 977.982 551.315 977.462 550.788C976.947 550.26 976.166 549.997 975.118 549.997C974.031 549.997 973.179 550.235 972.561 550.711C971.944 551.187 971.51 551.695 971.259 552.235L969.098 551.463C969.484 550.563 969.999 549.862 970.642 549.36C971.291 548.852 971.999 548.498 972.764 548.299C973.536 548.093 974.294 547.99 975.04 547.99C975.516 547.99 976.063 548.048 976.68 548.164C977.304 548.273 977.905 548.502 978.484 548.849C979.069 549.196 979.555 549.72 979.941 550.421C980.327 551.122 980.519 552.061 980.519 553.238V563H978.243V560.994H978.127C977.973 561.315 977.716 561.659 977.355 562.026C976.995 562.392 976.516 562.704 975.918 562.961C975.32 563.219 974.59 563.347 973.728 563.347ZM974.076 561.302C974.976 561.302 975.735 561.125 976.352 560.772C976.976 560.418 977.446 559.961 977.761 559.402C978.082 558.842 978.243 558.254 978.243 557.637V555.553C978.146 555.669 977.934 555.775 977.606 555.871C977.285 555.961 976.912 556.042 976.487 556.113C976.069 556.177 975.661 556.235 975.262 556.286C974.87 556.331 974.552 556.37 974.307 556.402C973.716 556.479 973.163 556.605 972.648 556.778C972.14 556.945 971.728 557.199 971.413 557.54C971.105 557.875 970.95 558.331 970.95 558.91C970.95 559.701 971.243 560.299 971.828 560.704C972.42 561.103 973.169 561.302 974.076 561.302ZM996.26 548.183L990.781 563H988.466L982.986 548.183H985.456L989.546 559.99H989.7L993.79 548.183H996.26ZM1003.17 563.347C1002.23 563.347 1001.38 563.17 1000.62 562.817C999.852 562.457 999.244 561.939 998.794 561.264C998.344 560.582 998.119 559.759 998.119 558.794C998.119 557.945 998.286 557.257 998.621 556.73C998.955 556.196 999.402 555.778 999.962 555.476C1000.52 555.174 1001.14 554.949 1001.81 554.801C1002.5 554.646 1003.18 554.524 1003.87 554.434C1004.77 554.318 1005.5 554.232 1006.06 554.174C1006.62 554.109 1007.04 554.003 1007.29 553.855C1007.56 553.707 1007.69 553.45 1007.69 553.084V553.006C1007.69 552.055 1007.43 551.315 1006.91 550.788C1006.39 550.26 1005.61 549.997 1004.56 549.997C1003.48 549.997 1002.62 550.235 1002.01 550.711C1001.39 551.187 1000.96 551.695 1000.7 552.235L998.544 551.463C998.929 550.563 999.444 549.862 1000.09 549.36C1000.74 548.852 1001.44 548.498 1002.21 548.299C1002.98 548.093 1003.74 547.99 1004.49 547.99C1004.96 547.99 1005.51 548.048 1006.13 548.164C1006.75 548.273 1007.35 548.502 1007.93 548.849C1008.51 549.196 1009 549.72 1009.39 550.421C1009.77 551.122 1009.96 552.061 1009.96 553.238V563H1007.69V560.994H1007.57C1007.42 561.315 1007.16 561.659 1006.8 562.026C1006.44 562.392 1005.96 562.704 1005.36 562.961C1004.77 563.219 1004.04 563.347 1003.17 563.347ZM1003.52 561.302C1004.42 561.302 1005.18 561.125 1005.8 560.772C1006.42 560.418 1006.89 559.961 1007.21 559.402C1007.53 558.842 1007.69 558.254 1007.69 557.637V555.553C1007.59 555.669 1007.38 555.775 1007.05 555.871C1006.73 555.961 1006.36 556.042 1005.93 556.113C1005.51 556.177 1005.11 556.235 1004.71 556.286C1004.32 556.331 1004 556.37 1003.75 556.402C1003.16 556.479 1002.61 556.605 1002.09 556.778C1001.59 556.945 1001.17 557.199 1000.86 557.54C1000.55 557.875 1000.4 558.331 1000.4 558.91C1000.4 559.701 1000.69 560.299 1001.27 560.704C1001.87 561.103 1002.61 561.302 1003.52 561.302ZM1024.61 551.502L1022.57 552.08C1022.44 551.74 1022.25 551.408 1022 551.087C1021.76 550.759 1021.42 550.489 1021 550.277C1020.57 550.064 1020.03 549.958 1019.37 549.958C1018.46 549.958 1017.71 550.167 1017.1 550.585C1016.5 550.997 1016.2 551.521 1016.2 552.158C1016.2 552.724 1016.41 553.17 1016.82 553.498C1017.23 553.826 1017.88 554.1 1018.75 554.318L1020.95 554.859C1022.27 555.18 1023.26 555.672 1023.91 556.334C1024.56 556.99 1024.89 557.836 1024.89 558.871C1024.89 559.72 1024.64 560.479 1024.15 561.148C1023.67 561.817 1022.99 562.344 1022.13 562.73C1021.26 563.116 1020.25 563.309 1019.1 563.309C1017.59 563.309 1016.34 562.981 1015.34 562.325C1014.35 561.669 1013.73 560.711 1013.46 559.45L1015.62 558.91C1015.83 559.707 1016.22 560.305 1016.79 560.704C1017.37 561.103 1018.13 561.302 1019.06 561.302C1020.12 561.302 1020.96 561.077 1021.59 560.627C1022.22 560.17 1022.53 559.624 1022.53 558.987C1022.53 558.473 1022.35 558.042 1021.99 557.695C1021.63 557.341 1021.08 557.077 1020.33 556.904L1017.86 556.325C1016.51 556.003 1015.51 555.505 1014.87 554.83C1014.24 554.148 1013.93 553.296 1013.93 552.273C1013.93 551.437 1014.16 550.698 1014.63 550.055C1015.11 549.412 1015.75 548.907 1016.57 548.54C1017.39 548.174 1018.33 547.99 1019.37 547.99C1020.83 547.99 1021.98 548.312 1022.82 548.955C1023.66 549.598 1024.26 550.447 1024.61 551.502ZM1034.33 563.309C1032.94 563.309 1031.75 562.981 1030.74 562.325C1029.74 561.669 1028.97 560.765 1028.43 559.614C1027.89 558.463 1027.62 557.148 1027.62 555.669C1027.62 554.164 1027.89 552.836 1028.45 551.685C1029.01 550.527 1029.78 549.624 1030.78 548.974C1031.78 548.318 1032.95 547.99 1034.29 547.99C1035.33 547.99 1036.27 548.183 1037.11 548.569C1037.95 548.955 1038.63 549.495 1039.16 550.19C1039.7 550.884 1040.03 551.695 1040.16 552.621H1037.88C1037.71 551.945 1037.32 551.347 1036.72 550.826C1036.13 550.299 1035.33 550.035 1034.33 550.035C1033.44 550.035 1032.67 550.267 1032 550.73C1031.33 551.187 1030.82 551.833 1030.44 552.669C1030.08 553.498 1029.89 554.473 1029.89 555.592C1029.89 556.736 1030.07 557.733 1030.43 558.582C1030.8 559.431 1031.32 560.09 1031.98 560.559C1032.65 561.029 1033.43 561.264 1034.33 561.264C1034.92 561.264 1035.46 561.161 1035.94 560.955C1036.42 560.749 1036.83 560.453 1037.17 560.068C1037.5 559.682 1037.74 559.219 1037.88 558.678H1040.16C1040.03 559.553 1039.71 560.341 1039.2 561.042C1038.7 561.736 1038.04 562.289 1037.21 562.701C1036.38 563.106 1035.42 563.309 1034.33 563.309ZM1043.49 563V548.183H1045.68V550.421H1045.84C1046.11 549.688 1046.6 549.093 1047.31 548.637C1048.01 548.18 1048.81 547.952 1049.7 547.952C1049.86 547.952 1050.07 547.955 1050.32 547.961C1050.58 547.968 1050.77 547.978 1050.89 547.99V550.306C1050.82 550.286 1050.64 550.257 1050.36 550.219C1050.09 550.174 1049.81 550.151 1049.5 550.151C1048.78 550.151 1048.14 550.302 1047.58 550.605C1047.02 550.9 1046.57 551.312 1046.24 551.839C1045.92 552.36 1045.76 552.955 1045.76 553.624V563H1043.49ZM1053.59 563V548.183H1055.87V563H1053.59ZM1054.75 545.714C1054.31 545.714 1053.92 545.563 1053.6 545.261C1053.29 544.958 1053.13 544.595 1053.13 544.17C1053.13 543.746 1053.29 543.383 1053.6 543.08C1053.92 542.778 1054.31 542.627 1054.75 542.627C1055.19 542.627 1055.57 542.778 1055.89 543.08C1056.21 543.383 1056.37 543.746 1056.37 544.17C1056.37 544.595 1056.21 544.958 1055.89 545.261C1055.57 545.563 1055.19 545.714 1054.75 545.714ZM1060.04 568.556V548.183H1062.24V550.537H1062.51C1062.68 550.28 1062.91 549.952 1063.2 549.553C1063.5 549.148 1063.94 548.788 1064.5 548.473C1065.06 548.151 1065.83 547.99 1066.79 547.99C1068.04 547.99 1069.14 548.302 1070.09 548.926C1071.04 549.55 1071.78 550.434 1072.32 551.579C1072.85 552.724 1073.12 554.074 1073.12 555.63C1073.12 557.199 1072.85 558.559 1072.32 559.711C1071.78 560.855 1071.04 561.743 1070.1 562.373C1069.15 562.997 1068.06 563.309 1066.83 563.309C1065.88 563.309 1065.12 563.151 1064.54 562.836C1063.97 562.514 1063.53 562.151 1063.22 561.746C1062.91 561.334 1062.68 560.994 1062.51 560.723H1062.32V568.556H1060.04ZM1062.28 555.592C1062.28 556.711 1062.44 557.698 1062.77 558.553C1063.1 559.402 1063.58 560.068 1064.21 560.55C1064.84 561.026 1065.61 561.264 1066.52 561.264C1067.47 561.264 1068.27 561.013 1068.9 560.511C1069.55 560.003 1070.03 559.322 1070.35 558.466C1070.68 557.605 1070.84 556.646 1070.84 555.592C1070.84 554.55 1070.68 553.611 1070.36 552.775C1070.04 551.933 1069.57 551.267 1068.92 550.778C1068.29 550.283 1067.49 550.035 1066.52 550.035C1065.59 550.035 1064.82 550.27 1064.19 550.74C1063.56 551.203 1063.08 551.852 1062.76 552.688C1062.44 553.518 1062.28 554.486 1062.28 555.592ZM1083.04 548.183V550.113H1075.36V548.183H1083.04ZM1077.59 544.633H1079.87V558.756C1079.87 559.399 1079.96 559.881 1080.15 560.203C1080.34 560.518 1080.59 560.73 1080.88 560.839C1081.19 560.942 1081.5 560.994 1081.84 560.994C1082.09 560.994 1082.3 560.981 1082.46 560.955C1082.62 560.923 1082.75 560.897 1082.84 560.878L1083.31 562.923C1083.15 562.981 1082.94 563.039 1082.66 563.096C1082.38 563.161 1082.03 563.193 1081.61 563.193C1080.96 563.193 1080.33 563.055 1079.72 562.778C1079.11 562.502 1078.6 562.08 1078.19 561.514C1077.79 560.949 1077.59 560.235 1077.59 559.373V544.633ZM1107.37 543.244H1109.77V556.325C1109.77 557.675 1109.45 558.881 1108.81 559.942C1108.18 560.997 1107.29 561.83 1106.14 562.441C1104.99 563.045 1103.64 563.347 1102.09 563.347C1100.54 563.347 1099.19 563.045 1098.04 562.441C1096.88 561.83 1095.99 560.997 1095.35 559.942C1094.72 558.881 1094.41 557.675 1094.41 556.325V543.244H1096.8V556.132C1096.8 557.096 1097.01 557.955 1097.44 558.707C1097.86 559.453 1098.47 560.042 1099.25 560.473C1100.04 560.897 1100.99 561.109 1102.09 561.109C1103.19 561.109 1104.13 560.897 1104.92 560.473C1105.71 560.042 1106.32 559.453 1106.74 558.707C1107.16 557.955 1107.37 557.096 1107.37 556.132V543.244ZM1120.68 548.183V550.113H1113V548.183H1120.68ZM1115.24 544.633H1117.51V558.756C1117.51 559.399 1117.61 559.881 1117.79 560.203C1117.99 560.518 1118.23 560.73 1118.53 560.839C1118.83 560.942 1119.15 560.994 1119.48 560.994C1119.73 560.994 1119.94 560.981 1120.1 560.955C1120.26 560.923 1120.39 560.897 1120.48 560.878L1120.95 562.923C1120.79 562.981 1120.58 563.039 1120.3 563.096C1120.02 563.161 1119.67 563.193 1119.25 563.193C1118.61 563.193 1117.98 563.055 1117.36 562.778C1116.75 562.502 1116.24 562.08 1115.83 561.514C1115.44 560.949 1115.24 560.235 1115.24 559.373V544.633ZM1124.1 563V548.183H1126.38V563H1124.1ZM1125.26 545.714C1124.82 545.714 1124.43 545.563 1124.11 545.261C1123.8 544.958 1123.64 544.595 1123.64 544.17C1123.64 543.746 1123.8 543.383 1124.11 543.08C1124.43 542.778 1124.82 542.627 1125.26 542.627C1125.7 542.627 1126.08 542.778 1126.4 543.08C1126.72 543.383 1126.88 543.746 1126.88 544.17C1126.88 544.595 1126.72 544.958 1126.4 545.261C1126.08 545.563 1125.7 545.714 1125.26 545.714ZM1132.82 543.244V563H1130.55V543.244H1132.82ZM1147.49 551.502L1145.44 552.08C1145.32 551.74 1145.13 551.408 1144.88 551.087C1144.63 550.759 1144.3 550.489 1143.87 550.277C1143.45 550.064 1142.9 549.958 1142.24 549.958C1141.33 549.958 1140.58 550.167 1139.97 550.585C1139.38 550.997 1139.08 551.521 1139.08 552.158C1139.08 552.724 1139.28 553.17 1139.7 553.498C1140.11 553.826 1140.75 554.1 1141.62 554.318L1143.82 554.859C1145.15 555.18 1146.14 555.672 1146.79 556.334C1147.43 556.99 1147.76 557.836 1147.76 558.871C1147.76 559.72 1147.51 560.479 1147.03 561.148C1146.54 561.817 1145.87 562.344 1145 562.73C1144.13 563.116 1143.12 563.309 1141.97 563.309C1140.46 563.309 1139.21 562.981 1138.22 562.325C1137.23 561.669 1136.6 560.711 1136.34 559.45L1138.5 558.91C1138.7 559.707 1139.09 560.305 1139.67 560.704C1140.24 561.103 1141 561.302 1141.93 561.302C1142.99 561.302 1143.84 561.077 1144.46 560.627C1145.09 560.17 1145.41 559.624 1145.41 558.987C1145.41 558.473 1145.23 558.042 1144.87 557.695C1144.51 557.341 1143.95 557.077 1143.21 556.904L1140.74 556.325C1139.38 556.003 1138.38 555.505 1137.75 554.83C1137.12 554.148 1136.8 553.296 1136.8 552.273C1136.8 551.437 1137.04 550.698 1137.51 550.055C1137.98 549.412 1138.63 548.907 1139.44 548.54C1140.27 548.174 1141.2 547.99 1142.24 547.99C1143.71 547.99 1144.86 548.312 1145.69 548.955C1146.54 549.598 1147.14 550.447 1147.49 551.502Z" fill="#35495E" fill-opacity="0.5"/>
<g clip-path="url(#clip1_23_2)">

<path d="M1111.56 39H1024.44C1003.21 39 986 56.2091 986 77.4375V164.562C986 185.791 1003.21 203 1024.44 203H1111.56C1132.79 203 1150 185.791 1150 164.562V77.4375C1150 56.2091 1132.79 39 1111.56 39Z" fill="#F0DB4F"/>
<path d="M1029.12 176.05L1041.67 168.455C1044.09 172.748 1046.3 176.38 1051.58 176.38C1056.64 176.38 1059.84 174.399 1059.84 166.694V114.292H1075.25V166.912C1075.25 182.874 1065.89 190.14 1052.24 190.14C1039.91 190.14 1032.75 183.755 1029.12 176.049M1083.62 174.399L1096.17 167.133C1099.47 172.528 1103.76 176.491 1111.36 176.491C1117.75 176.491 1121.82 173.298 1121.82 168.894C1121.82 163.61 1117.63 161.739 1110.59 158.657L1106.74 157.005C1095.62 152.272 1088.24 146.327 1088.24 133.777C1088.24 122.218 1097.05 113.41 1110.81 113.41C1120.61 113.41 1127.65 116.824 1132.72 125.741L1120.72 133.447C1118.08 128.713 1115.21 126.842 1110.81 126.842C1106.3 126.842 1103.43 129.704 1103.43 133.447C1103.43 138.07 1106.3 139.942 1112.9 142.805L1116.75 144.456C1129.85 150.071 1137.23 155.794 1137.23 168.674C1137.23 182.546 1126.33 190.141 1111.69 190.141C1097.38 190.141 1088.13 183.316 1083.62 174.399Z" fill="#323330"/>
</g>
</g>
<defs>
<clipPath id="clip0_23_2">
<rect width="1200" height="630" fill="white"/>
</clipPath>
<clipPath id="clip1_23_2">
<rect width="164" height="164" fill="white" transform="translate(986 39)"/>
</clipPath>
</defs>
</svg>
